<?xml version="1.0" encoding="utf-8"?>
<svg viewBox="0 0 4780.23 2241.87" xmlns="http://www.w3.org/2000/svg">
  <defs>
    <style>.cls-1, .cls-4 { fill: rgb(100, 50, 25); }
.cls-1, .cls-2, .cls-3 { stroke: rgb(100, 50, 25); }
.cls-1 { stroke-miterlimit: 10; }
.cls-1, .cls-2, .cls-3, .cls-5 { stroke-width: 50px; }
.cls-1, .cls-2, .cls-3, .cls-5, .cls-6, .cls-8 { fill-rule: evenodd; }
.cls-2, .cls-3 { fill: rgb(255, 243, 228); }
.cls-2 { stroke-linecap: round; }
.cls-2, .cls-3, .cls-5 { stroke-linejoin: round; }
.cls-4 { font-size: 128px; font-family: Arial-Black, Arial; font-weight: 800; }
.cls-5 { fill: rgb(255, 255, 255); stroke: rgb(100, 50, 25); }
.cls-6 { fill: rgb(249, 159, 67); }
.cls-7 { fill: rgb(223, 128, 41); }
.cls-8 { fill: rgb(251, 234, 183); }
.eggyolk { transform-origin: 35% 70%; animation-duration: 160ms; animation-timing-function: ease-in-out; animation-delay: 0s; animation-iteration-count: infinite; animation-direction: alternate; animation-fill-mode: none; animation-play-state: running; animation-timeline: auto; animation-range: normal; }
.eggwhite { transform-origin: 35% 70%; animation-timing-function: ease-in-out; animation-delay: 0s; animation-iteration-count: infinite; animation-direction: alternate; animation-fill-mode: none; animation-play-state: running; animation-name: eggwobble; animation-timeline: auto; animation-range: normal; }
@keyframes eggwobble { 
  0% { transform: skew(1deg, 1deg); }
  50% { transform: skew(2deg, -2deg); }
  100% { transform: skew(-1deg, 0deg); }
}
@keyframes yolkwobble { 
  0% { transform: skew(3deg, 4deg); }
  50% { transform: skew(6deg, -5deg); }
  100% { transform: skew(-3deg, 2deg); }
}</style>
  </defs>
  <g transform="matrix(0.4915619790554046, 0, 0, 0.4915619790554046, 1006.4914090408593, 586.9816371646766)" style="">
    <g style="" transform="matrix(4.296707, 0, 0, 4.296707, -4774.550364, -6091.153899)">
      <path class="cls-6" d="M 1374.48 2920.761 C 230.415 2921.081 -484.973 1682.795 86.783 691.845 C 658.539 -299.104 2088.62 -299.504 2660.93 691.126 C 2997.465 1273.648 2900.724 2009.59 2425.075 2485.348 C 2147.102 2765.003 1768.782 2921.795 1374.48 2920.761 Z" style=""/>
      <path class="cls-7" d="M 1374.42 64.484 C 2130.558 64.484 2743.522 677.74 2743.522 1434.227 C 2743.522 2190.714 2130.675 2804.029 1374.42 2804.029 C 618.168 2804.029 5.379 2190.773 5.379 1434.227 C 5.379 677.682 618.225 64.484 1374.42 64.484 M 1374.42 -168.982 C 144.675 -167.503 -622.317 1164.659 -6.164 2228.913 C 609.989 3293.165 2147.173 3291.318 2760.766 2225.588 C 3239.6 1393.918 2882.287 330.756 1998.358 -42.91 C 1800.98 -126.488 1588.765 -169.369 1374.42 -168.982 Z" style=""/>
      <path id="highlight" class="cls-8" d="M 552.972 676.866 C 244.564 1012.939 230.906 1530.999 327.502 1547.049 C 420.071 1562.459 558.867 1183.369 842.937 902.451 C 1110.372 637.993 1454.967 499.723 1454.967 419.002 C 1454.967 338.282 868.909 332.619 552.972 676.866 Z" style=""/>
    </g>
    <g id="logo-egg" style="" transform="matrix(2.034332, 0, 0, 2.034332, -720.867442, -1897.136259)">
      <g class="eggwhite" style="">
        <path id="white" class="cls-5" d="M2317.35,1209.12c275.33,74.63,79.48,339.67,96.84,472.19s210.3,254.45,111.27,386.81c-76.42,102.14-195.82,42.57-335.56,95.19s-137.17,190.62-351.06,159.09c-177.72-26.2-174.2-266.79-214-354.5-45.47-100.29-254.52-204.6-169.19-369.46s208.5-136.63,308.06-171.59C1868.41,1390.1,2004.93,1124.43,2317.35,1209.12Z" transform="translate(-362.6 -224.86)" style=""/>
      </g>
    </g>
    <g style="" transform="matrix(0.488788, 0, 0, 0.488788, 1953.342925, 569.761727)">
      <path class="cls-6" d="M 1374.48 2920.761 C 230.415 2921.081 -484.973 1682.795 86.783 691.845 C 658.539 -299.104 2088.62 -299.504 2660.93 691.126 C 2997.465 1273.648 2900.724 2009.59 2425.075 2485.348 C 2147.102 2765.003 1768.782 2921.795 1374.48 2920.761 Z" style=""/>
      <path class="cls-7" d="M 1374.42 64.484 C 2130.558 64.484 2743.522 677.74 2743.522 1434.227 C 2743.522 2190.714 2130.675 2804.029 1374.42 2804.029 C 618.168 2804.029 5.379 2190.773 5.379 1434.227 C 5.379 677.682 618.225 64.484 1374.42 64.484 M 1374.42 -168.982 C 144.675 -167.503 -622.317 1164.659 -6.164 2228.913 C 609.989 3293.165 2147.173 3291.318 2760.766 2225.588 C 3239.6 1393.918 2882.287 330.756 1998.358 -42.91 C 1800.98 -126.488 1588.765 -169.369 1374.42 -168.982 Z" style=""/>
      <path id="path-1" class="cls-8" d="M 552.972 676.866 C 244.564 1012.939 230.906 1530.999 327.502 1547.049 C 420.071 1562.459 558.867 1183.369 842.937 902.451 C 1110.372 637.993 1454.967 499.723 1454.967 419.002 C 1454.967 338.282 868.909 332.619 552.972 676.866 Z" style=""/>
    </g>
    <path class="cls-2" d="M 2031.743 754.187 C 1992.533 801.577 1899.443 1067.247 1924.213 1281.097 C 1949.213 1495.097 2079.613 1792.547 2313.793 1804.097 C 2550.413 1815.977 2729.063 1546.937 2675.713 1457.827 C 2614.953 1358.577 2283.613 1547.457 2284.623 1548.227 C 2284.723 1548.137 2393.123 1423.507 2487.623 1265.527 C 2581.623 1107.377 2661.723 915.877 2591.623 777.777 C 2500.303 597.067 2146.463 612.067 2031.743 754.187 Z"/>
    <path class="cls-2" d="M 2948.026 651.055 C 2807.156 657.585 2650.416 775.055 2611.526 925.485 C 2527.116 1256.385 2862.186 1366.525 2861.186 1367.285 C 2861.326 1367.115 2708.966 1309.835 2679.756 1319.795 C 2645.696 1330.995 2511.456 1430.365 2523.286 1478.665 C 2557.046 1617.315 2697.046 1796.465 2952.646 1780.995 C 3184.776 1767.215 3348.036 1641.075 3353.116 1404.785 C 3358.596 1150.405 3166.786 1073.125 3106.386 1041.365 C 3042.186 1007.075 2995.116 987.875 2995.186 987.865 C 2995.356 987.655 3172.516 1048.675 3212.186 1035.035 C 3242.976 1024.215 3311.476 925.575 3305.856 890.975 C 3291.026 798.745 3110.366 643.165 2948.026 651.055 Z"/>
  </g>
</svg>