<?xml version="1.0" encoding="utf-8"?>
<svg viewBox="0 0 500 500" xmlns="http://www.w3.org/2000/svg">
  <defs/>
  <g id="shadow" transform="matrix(1, 0, 0, 1, 1221.136127, 229.9043)" style="">
    <g id="shell" style="" transform="matrix(1, 0, 0, 0.894872, -3512.82891, -648.356211)">
      <path class="cls-1" d="M3896.16,539.9c-32.83,61.12-85.61,466.67-36.63,699.75,49.2,233.78,184.16,426.93,371.12,364.76,117.67-38.39,228.07-157.88,302.8-269.63,74.46-112.72,113.24-217.69,81.74-249.5-34.72-34.8-129.59,22.65-214.64,92.4-85.24,69.18-160.67,150.65-160.68,150.6.16.68,88.84-158.73,161.12-343.78,71.66-187.18,126.93-400,46.1-555.4-46.15-88.88-160.53-110.07-274.66-83.24C4058.19,372.3,3944.19,446.74,3896.16,539.9Z" transform="translate(-362.6 -224.86)" style="fill: rgb(100, 50, 25); fill-rule: evenodd; stroke: rgb(100, 50, 25); stroke-miterlimit: 10; stroke-width: 50px;"/>
      <path class="cls-1" d="M3350.2,479.47c-38.89,58.72-130.93,387.69-105.13,647.24C3271,1386,3404.3,1737.62,3639.59,1703.77c119.26-16.77,221.86-115.93,288.84-218.34,66.81-103,98-209.24,70.63-253.71-61.08-99-391.34,174.52-390.54,175.6.17.88,107.88-166,201.29-361.85,92.85-197.31,171.39-423.63,100.4-574.89C3817.41,271.81,3464.12,301.66,3350.2,479.47Z" transform="translate(-362.6 -224.86)" style="fill: rgb(100, 50, 25); fill-rule: evenodd; stroke: rgb(100, 50, 25); stroke-miterlimit: 10; stroke-width: 50px;"/>
      <path class="cls-1" d="M1312.14,379.92C1171.2,376,1013.82,484.84,974.76,631c-43,160.76,19.94,284.6,92.17,373.1,72.47,87.68,154.25,140,154.51,139,.12-.34-150.89-97.14-179.84-94-33.92,4.58-166.68,66.48-154.83,115.69,16.44,72.85,59.58,164.7,129.5,250,70,84.76,166.87,163,293.78,196,230.08,60.74,394.82-48.93,401.55-322.63,7.31-294.69-183.84-410.53-243.88-454.87-63.92-48-110.74-76.09-110.72-76.12.16-.42,176.59,94.05,216.35,84,30.84-7.63,100.05-113.1,94.68-154.14C1653.92,577.33,1474.52,383.91,1312.14,379.92Z" transform="translate(-362.6 -224.86)" style="fill: rgb(100, 50, 25); fill-rule: evenodd; stroke: rgb(100, 50, 25); stroke-miterlimit: 10; stroke-width: 50px;"/>
      <path class="cls-1" d="M1641.62,464.47c-40.23,47.23-35.68,315.65-19.9,530.15,16.2,213.3,105.3,606.34,139.13,636.66,34.26,30,240.25,104.28,268.39,60.4,18.24-27.77,29.75-439.86,29.84-440,0,0,13.07,411.64,30.51,446.64,26.58,54.66,234.76,13.3,261.68-3.31,26.49-14.85,97.75-281.36,123.14-535,25-253.15,50.47-625.94,15-676.93-35.27-51.09-380.66-91.44-406.9-28.38-16,38.51-33,391.43-32.9,391.25,0,0-8.22-354.51-23.37-400.13C2011.6,401.74,1681.58,418.15,1641.62,464.47Z" transform="translate(-362.6 -224.86)" style="fill: rgb(100, 50, 25); fill-rule: evenodd; stroke: rgb(100, 50, 25); stroke-miterlimit: 10; stroke-width: 50px;"/>
      <path class="cls-1" d="M2872,356.21c-137.33,2.29-268.64,129.36-355.82,304.19-87.46,175.14-130.81,398-98.74,599.34,51.95,322.19,269.11,537.56,496.52,513.63,178.43-18.92,299.51-152,370.23-286.69,70.58-135.37,90.8-272.39,64.26-314.15-42.21-64.69-397.25-.87-397.1-2.24-.11,1.4,343.77-66.59,385.81-122.2,31.11-40-25.28-243.54-64-281.93-46.33-45.32-305.51-2.77-305.41-3.08-.08.71,345.19-46.2,387.43-99.18C3386.76,627.06,3127.6,353.21,2872,356.21Z" transform="translate(-362.6 -224.86)" style="fill: rgb(100, 50, 25); fill-rule: evenodd; stroke: rgb(100, 50, 25); stroke-miterlimit: 10; stroke-width: 50px;"/>
    </g>
    <g transform="matrix(1, 0, 0, 1, 2129.499055, 1487.064109)" style="">
      <path class="cls-2" d="M -5063.822 -2727.069 C -5103.032 -2679.679 -5196.122 -2414.009 -5171.352 -2200.159 C -5146.352 -1986.159 -5015.952 -1688.709 -4781.772 -1677.159 C -4545.152 -1665.279 -4366.502 -1934.319 -4419.852 -2023.429 C -4480.612 -2122.679 -4811.952 -1933.799 -4810.942 -1933.029 C -4810.842 -1933.119 -4702.442 -2057.749 -4607.942 -2215.729 C -4513.942 -2373.879 -4433.842 -2565.379 -4503.942 -2703.479 C -4595.262 -2884.189 -4949.102 -2869.189 -5063.822 -2727.069 Z" style="fill-rule: evenodd; stroke: rgb(100, 50, 25); stroke-linecap: round; stroke-linejoin: round; stroke-width: 50px; fill: rgb(100, 50, 25);"/>
      <path class="cls-2" d="M -4146.665 -1834.138 C -4359.305 -1832.768 -4568.305 -2151.728 -4531.375 -2415.868 C -4501.535 -2627.348 -4327.795 -2766.428 -4138.435 -2758.978 C -3841.305 -2747.048 -3734.655 -2439.558 -3777.365 -2382.448 C -3811.365 -2336.888 -4097.745 -2367.078 -4097.795 -2366.688 C -4097.795 -2367.058 -3819.935 -2334.178 -3786.285 -2299.318 C -3761.285 -2273.808 -3806.185 -2136.698 -3836.505 -2110.558 C -3872.995 -2079.388 -4078.315 -2101.558 -4078.345 -2101.308 C -4078.345 -2101.458 -3901.015 -2077.708 -3867.715 -2043.748 C -3843.455 -2018.938 -3949.055 -1835.428 -4146.665 -1834.138 Z" style="fill-rule: evenodd; stroke: rgb(100, 50, 25); stroke-linecap: round; stroke-linejoin: round; stroke-width: 50px; fill: rgb(100, 50, 25);"/>
      <path class="cls-2" d="M -3534.804 -2710.596 C -3752.724 -2720.776 -3948.354 -2376.856 -3897.064 -2115.146 C -3856.284 -1905.576 -3685.144 -1776.006 -3499.964 -1786.756 C -3182.504 -1804.756 -3134.874 -2174.616 -3152.724 -2244.756 C -3167.584 -2303.066 -3546.463 -2274.12 -3546.383 -2273.65 C -3546.383 -2273.65 -3457.898 -2202.647 -3465.799 -2165.055 C -3477.061 -2111.475 -3558.694 -2073.529 -3557.624 -2088.491 C -3549.174 -2209.351 -3579.279 -2369.23 -3593.359 -2474.66 C -3598.629 -2514.27 -3533.957 -2290.186 -3506.377 -2284.696 C -3478.727 -2279.566 -3184.264 -2272.086 -3163.464 -2305.696 C -3145.264 -2334.946 -3260.134 -2697.606 -3534.804 -2710.596 Z" style="fill-rule: evenodd; stroke: rgb(100, 50, 25); stroke-linecap: round; stroke-linejoin: round; stroke-width: 50px; fill: rgb(100, 50, 25);"/>
      <path class="cls-2" d="M -1422.01 -1853.55 C -1403.084 -1873.711 -1391.092 -1973.565 -1389.073 -2059.78 C -1387.659 -2120.204 -1251.176 -2183.363 -1255.973 -2249.209 C -1267.615 -2409.007 -1332.153 -2660.369 -1360.563 -2675.759 C -1388.823 -2691.339 -1560.893 -2714.859 -1584.383 -2682.659 C -1599.783 -2661.659 -1607.803 -2338.939 -1607.773 -2338.939 C -1607.743 -2338.939 -1620.023 -2658.939 -1634.643 -2680.259 C -1656.993 -2713.079 -1829.963 -2664.839 -1851.823 -2652.389 C -1873.823 -2640.119 -1928.963 -2460.269 -1944.993 -2293.589 L -1706.472 -2046.67 C -1706.452 -2046.67 -1700.862 -1856.67 -1688.972 -1826.83 C -1677.462 -1798.33 -1454.25 -1819.61 -1422.01 -1853.55 Z" style="fill-rule: evenodd; stroke: rgb(100, 50, 25); stroke-linecap: round; stroke-linejoin: round; stroke-width: 50px; fill: rgb(100, 50, 25);"/>
      <path class="cls-2" d="M -2174.258 -2734.113 C -2392.178 -2744.293 -2587.808 -2400.373 -2536.518 -2138.663 C -2495.738 -1929.093 -2324.598 -1799.523 -2139.418 -1810.273 C -1821.958 -1828.273 -1774.328 -2198.133 -1792.178 -2268.273 C -1807.038 -2326.583 -2118.118 -2286.543 -2118.038 -2286.073 C -2118.038 -2286.073 -2158.218 -2089.013 -2156.398 -2114.473 C -2147.948 -2235.333 -2148.468 -2340.973 -2162.548 -2446.403 C -2167.818 -2486.013 -2140.128 -2313.703 -2112.548 -2308.213 C -2084.898 -2303.083 -1823.718 -2295.603 -1802.918 -2329.213 C -1784.718 -2358.463 -1899.588 -2721.123 -2174.258 -2734.113 Z" style="fill-rule: evenodd; stroke: rgb(100, 50, 25); stroke-linecap: round; stroke-linejoin: round; stroke-width: 50px; fill: rgb(100, 50, 25);"/>
      <path class="cls-2" d="M -2494.099 -1855.874 L -2536.309 -2432.224 C -2546.459 -2714.484 -3021.309 -2719.544 -3095.309 -2661.224 C -3169.889 -2604.224 -3251.949 -1909.574 -3216.809 -1876.224 C -3181.269 -1842.674 -2944.949 -1796.714 -2908.219 -1830.734 C -2871.409 -1865.044 -2899.869 -2107.054 -2899.929 -2107.054 C -2899.819 -2107.054 -2833.179 -1843.054 -2786.689 -1812.544 C -2752.469 -1790.434 -2521.509 -1816.374 -2494.099 -1855.874 Z M -2851.159 -2394.424 C -2859.099 -2335.044 -2886.159 -2299.894 -2886.159 -2299.894 C -2878.892 -2363.707 -2871.599 -2427.517 -2864.279 -2491.324 C -2864.279 -2491.324 -2843.139 -2454.354 -2851.159 -2394.424 Z" style="fill-rule: evenodd; stroke: rgb(100, 50, 25); stroke-linecap: round; stroke-linejoin: round; stroke-width: 50px; fill: rgb(100, 50, 25);"/>
    </g>
  </g>
  <g id="face" transform="matrix(1, 0, 0, 1, -2293.858188, -454.644874)" style="">
    <g transform="matrix(1, 0, 0, 1, 5641.380943, 1963.510039)" style="">
      <path class="cls-2" d="M -5063.822 -2727.069 C -5103.032 -2679.679 -5196.122 -2414.009 -5171.352 -2200.159 C -5146.352 -1986.159 -5015.952 -1688.709 -4781.772 -1677.159 C -4545.152 -1665.279 -4366.502 -1934.319 -4419.852 -2023.429 C -4480.612 -2122.679 -4811.952 -1933.799 -4810.942 -1933.029 C -4810.842 -1933.119 -4702.442 -2057.749 -4607.942 -2215.729 C -4513.942 -2373.879 -4433.842 -2565.379 -4503.942 -2703.479 C -4595.262 -2884.189 -4949.102 -2869.189 -5063.822 -2727.069 Z" style="fill: rgb(255, 243, 228); fill-rule: evenodd; stroke: rgb(100, 50, 25); stroke-linecap: round; stroke-linejoin: round; stroke-width: 50px;"/>
      <path class="cls-2" d="M -4146.665 -1834.138 C -4359.305 -1832.768 -4568.305 -2151.728 -4531.375 -2415.868 C -4501.535 -2627.348 -4327.795 -2766.428 -4138.435 -2758.978 C -3841.305 -2747.048 -3734.655 -2439.558 -3777.365 -2382.448 C -3811.365 -2336.888 -4097.745 -2367.078 -4097.795 -2366.688 C -4097.795 -2367.058 -3819.935 -2334.178 -3786.285 -2299.318 C -3761.285 -2273.808 -3806.185 -2136.698 -3836.505 -2110.558 C -3872.995 -2079.388 -4078.315 -2101.558 -4078.345 -2101.308 C -4078.345 -2101.458 -3901.015 -2077.708 -3867.715 -2043.748 C -3843.455 -2018.938 -3949.055 -1835.428 -4146.665 -1834.138 Z" style="fill: rgb(255, 243, 228); fill-rule: evenodd; stroke: rgb(100, 50, 25); stroke-linecap: round; stroke-linejoin: round; stroke-width: 50px;"/>
      <path class="cls-2" d="M -3534.804 -2710.596 C -3752.724 -2720.776 -3948.354 -2376.856 -3897.064 -2115.146 C -3856.284 -1905.576 -3685.144 -1776.006 -3499.964 -1786.756 C -3182.504 -1804.756 -3134.874 -2174.616 -3152.724 -2244.756 C -3167.584 -2303.066 -3546.463 -2274.12 -3546.383 -2273.65 C -3546.383 -2273.65 -3550.136 -2168.449 -3550.976 -2124.99 C -3551.773 -2083.78 -3536.164 -2083.696 -3468.672 -2069.717 C -3437.707 -2063.304 -3558.22 -2077.353 -3557.624 -2088.491 C -3551.147 -2209.473 -3551.904 -2349.676 -3565.984 -2455.106 C -3571.254 -2494.716 -3533.957 -2290.186 -3506.377 -2284.696 C -3478.727 -2279.566 -3184.264 -2272.086 -3163.464 -2305.696 C -3145.264 -2334.946 -3260.134 -2697.606 -3534.804 -2710.596 Z" style="fill: rgb(255, 243, 228); fill-rule: evenodd; stroke: rgb(100, 50, 25); stroke-linecap: round; stroke-linejoin: round; stroke-width: 50px;"/>
      <path class="cls-2" d="M -1422.01 -1853.55 C -1403.084 -1873.711 -1391.092 -1973.565 -1389.073 -2059.78 C -1387.659 -2120.204 -1251.176 -2183.363 -1255.973 -2249.209 C -1267.615 -2409.007 -1332.153 -2660.369 -1360.563 -2675.759 C -1388.823 -2691.339 -1560.893 -2714.859 -1584.383 -2682.659 C -1599.783 -2661.659 -1607.803 -2338.939 -1607.773 -2338.939 C -1607.743 -2338.939 -1620.023 -2658.939 -1634.643 -2680.259 C -1656.993 -2713.079 -1829.963 -2664.839 -1851.823 -2652.389 C -1873.823 -2640.119 -1928.963 -2460.269 -1944.993 -2293.589 L -1742.742 -2073.048 C -1742.722 -2073.048 -1700.862 -1856.67 -1688.972 -1826.83 C -1677.462 -1798.33 -1454.25 -1819.61 -1422.01 -1853.55 Z" style="fill: rgb(255, 243, 228); fill-rule: evenodd; stroke: rgb(100, 50, 25); stroke-linecap: round; stroke-linejoin: round; stroke-width: 50px;"/>
      <path class="cls-2" d="M -2174.258 -2734.113 C -2392.178 -2744.293 -2587.808 -2400.373 -2536.518 -2138.663 C -2495.738 -1929.093 -2324.598 -1799.523 -2139.418 -1810.273 C -1821.958 -1828.273 -1774.328 -2198.133 -1792.178 -2268.273 C -1807.038 -2326.583 -2118.118 -2286.543 -2118.038 -2286.073 C -2118.038 -2286.073 -2158.218 -2089.013 -2156.398 -2114.473 C -2147.948 -2235.333 -2148.468 -2340.973 -2162.548 -2446.403 C -2167.818 -2486.013 -2140.128 -2313.703 -2112.548 -2308.213 C -2084.898 -2303.083 -1823.718 -2295.603 -1802.918 -2329.213 C -1784.718 -2358.463 -1899.588 -2721.123 -2174.258 -2734.113 Z" style="fill: rgb(255, 243, 228); fill-rule: evenodd; stroke: rgb(100, 50, 25); stroke-linecap: round; stroke-linejoin: round; stroke-width: 50px;"/>
      <path class="cls-2" d="M -2494.099 -1855.874 L -2536.309 -2432.224 C -2546.459 -2714.484 -3021.309 -2719.544 -3095.309 -2661.224 C -3169.889 -2604.224 -3251.949 -1909.574 -3216.809 -1876.224 C -3181.269 -1842.674 -2944.949 -1796.714 -2908.219 -1830.734 C -2871.409 -1865.044 -2899.869 -2107.054 -2899.929 -2107.054 C -2899.819 -2107.054 -2833.179 -1843.054 -2786.689 -1812.544 C -2752.469 -1790.434 -2521.509 -1816.374 -2494.099 -1855.874 Z M -2875.487 -2397.465 C -2883.427 -2338.085 -2886.159 -2299.894 -2886.159 -2299.894 C -2878.892 -2363.707 -2871.599 -2427.517 -2864.279 -2491.324 C -2864.279 -2491.324 -2867.467 -2457.395 -2875.487 -2397.465 Z" style="fill: rgb(255, 243, 228); fill-rule: evenodd; stroke: rgb(100, 50, 25); stroke-linecap: round; stroke-linejoin: round; stroke-width: 50px;"/>
    </g>
    <g id="shell-2" data-name="shell" style="">
      <path class="cls-2" d="M3906.5,443.07c-33.23,51.48-88.54,394.36-41.1,604.1,47.69,209.83,181.17,410.73,370.08,412.23,236.62,1.79,452.92-306.75,390.2-389.21-71.45-91.83-380.67,132.93-379.58,133.59.07-.09,90.3-124.22,163.6-287,72.8-162.94,128.68-364.59,48.38-522.24C4365.93,213.67,4003.17,288.91,3906.5,443.07Z" transform="translate(-362.6 -224.86)" style="fill: rgb(255, 243, 228); fill-rule: evenodd; stroke: rgb(100, 50, 25); stroke-linecap: round; stroke-linejoin: round; stroke-width: 50px;"/>
      <path class="cls-2" d="M3361,360.35c-39.21,47.39-132.3,313.06-107.53,526.91,25,214,155.4,511.45,389.58,523,236.62,11.88,415.27-257.16,361.92-346.27-60.76-99.25-392.1,89.63-391.09,90.4.1-.09,108.5-124.72,203-282.7,94-158.15,174.1-349.65,104-487.75C3829.56,203.23,3475.72,218.23,3361,360.35Z" transform="translate(-362.6 -224.86)" style="fill: rgb(255, 243, 228); fill-rule: evenodd; stroke: rgb(100, 50, 25); stroke-linecap: round; stroke-linejoin: round; stroke-width: 50px;"/>
      <path class="cls-2" d="M1322.84,325.77c-140.87,6.53-297.61,124-336.5,274.43C901.93,931.1,1237,1041.24,1236,1042c.14-.17-152.22-57.45-181.43-47.49-34.06,11.2-168.3,110.57-156.47,158.87,33.76,138.65,173.76,317.8,429.36,302.33,232.13-13.78,395.39-139.92,400.47-376.21,5.48-254.38-186.33-331.66-246.73-363.42C1417,681.79,1369.93,662.59,1370,662.58c.17-.21,177.33,60.81,217,47.17,30.79-10.82,99.29-109.46,93.67-144.06C1665.84,473.46,1485.18,317.88,1322.84,325.77Z" transform="translate(-362.6 -224.86)" style="fill: rgb(255, 243, 228); fill-rule: evenodd; stroke: rgb(100, 50, 25); stroke-linecap: round; stroke-linejoin: round; stroke-width: 50px;"/>
      <path class="cls-2" d="M1652.8,375.54c-39.92,43.43-33.65,277.25-16.51,462.19,17.58,184.9,109.11,510.46,143,529.45,34.48,18.55,239.87,48.34,267.49,9.13,17.94-25.88,27.25-370.29,27.35-370.3s15.13,341.31,32.62,368.21c26.72,40.8,232.91-13.6,259.5-27.56,26.16-14.35,96-235.51,120.74-442.09,24.29-206.63,49.06-509.37,13.47-550.22-35.32-41.75-381-65.81-406.91-11.47-15.83,32.33-31,326.47-30.94,326.46s-10-294.12-25.38-331.45C2022.4,301,1692.44,331.27,1652.8,375.54Z" transform="translate(-362.6 -224.86)" style="fill: rgb(255, 243, 228); fill-rule: evenodd; stroke: rgb(100, 50, 25); stroke-linecap: round; stroke-linejoin: round; stroke-width: 50px;"/>
      <path class="cls-2" d="M2883.13,249.88c-137.48,1.07-268.82,104.33-355.5,248-87,143.62-129.4,327.6-97,490.1,52.73,260.29,267.83,422.43,492.62,410.34,351.92-18.48,484.59-393.25,433-466.37-41.83-59-395.28-22.32-395-21.43-.19-.83,342.08-41,384.34-82.05,31.18-31.08-24.12-202.53-62.61-235.5-46.08-40.22-304.82-12.75-304.69-12.28-.07-.35,222.89-30.13,265-71.2C3274.47,479.4,3138.7,247.93,2883.13,249.88Z" transform="translate(-362.6 -224.86)" style="fill: rgb(255, 243, 228); fill-rule: evenodd; stroke: rgb(100, 50, 25); stroke-linecap: round; stroke-linejoin: round; stroke-width: 50px;"/>
    </g>
  </g>
  <text class="cls-4" style="white-space: pre; fill: rgb(100, 50, 25); font-family: Arial-Black, Arial; font-size: 128px; font-weight: 800; line-height: 204.8px; perspective-origin: 96.9375px 0px; visibility: hidden;" x="3044.107" y="2792.796">TM</text>
  <g id="shockers-2" data-name="shockers" style="visibility: hidden;" transform="matrix(1, 0, 0, 1, 2216.202426, -3138.965623)">
    <path class="cls-2" d="M 6324.046 1450.026 C 6432.936 1445.816 6554.276 1355.216 6585.966 1235.346 C 6656.136 970.816 6385.966 873.826 6385.726 874.176 C 6385.726 874.096 6509.396 923.026 6532.896 915.996 C 6560.246 907.636 6670.126 831.996 6661.316 792.816 C 6635.986 680.326 6521.316 529.946 6307.176 539.906 C 6112.886 549.076 5980.466 654.366 5984.646 844.506 C 5989.116 1049.126 6145.616 1121.126 6193.986 1147.046 C 6245.826 1174.616 6314.056 1200.626 6314.056 1200.636 C 6314.056 1200.646 6153.336 1140.196 6133.816 1151.006 C 6111.106 1163.386 6033.246 1229.696 6038.886 1257.516 C 6053.946 1331.466 6198.826 1454.706 6324.046 1450.026 Z" style="fill: rgb(255, 243, 228); fill-rule: evenodd; stroke: rgb(100, 50, 25); stroke-linecap: round; stroke-linejoin: round; stroke-width: 50px; visibility: hidden;"/>
    <path class="cls-2" d="M 6458.877 2015.369 C 6458.877 2015.269 6600.647 1979.709 6592.477 1758.369 C 6582.327 1476.109 6107.477 1471.049 6033.477 1529.369 C 5958.897 1586.369 5876.837 2281.019 5911.977 2314.369 C 5947.517 2347.919 6183.837 2393.879 6220.567 2359.859 C 6257.377 2325.549 6228.917 2083.539 6228.857 2083.539 C 6228.967 2083.539 6295.607 2347.539 6342.097 2378.049 C 6376.317 2400.159 6607.277 2374.219 6634.687 2334.719 C 6664.247 2292.019 6459.237 2015.169 6458.877 2015.369 Z M 6277.627 1796.169 C 6269.687 1855.549 6242.627 1890.699 6242.627 1890.699 C 6249.893 1826.886 6257.187 1763.076 6264.507 1699.269 C 6264.507 1699.269 6285.647 1736.239 6277.627 1796.169 L 6277.627 1796.169 Z" style="fill: rgb(255, 243, 228); fill-rule: evenodd; stroke: rgb(100, 50, 25); stroke-linecap: round; stroke-linejoin: round; stroke-width: 50px;"/>
    <path class="cls-2" d="M 1235.748 4045.343 C 1165.928 4117.013 1198.638 4742.693 1271.888 4820.093 C 1305.518 4855.273 1487.988 4895.293 1523.598 4872.443 C 1561.408 4848.063 1498.398 4621.753 1498.298 4621.763 C 1498.368 4621.763 1556.568 4842.883 1589.368 4867.923 C 1624.968 4894.693 1871.158 4859.233 1891.778 4819.113 C 1916.138 4771.763 1678.668 4481.953 1678.778 4432.413 C 1678.778 4393.413 1903.778 4112.413 1864.778 4065.833 C 1822.368 4015.033 1605.858 3988.833 1575.838 4004.563 C 1539.328 4023.333 1490.068 4263.663 1490.138 4263.673 C 1490.058 4263.673 1542.328 4009.593 1508.998 3998.043 C 1475.648 3986.273 1269.048 4010.953 1235.748 4045.343 Z" style="fill: rgb(255, 243, 228); fill-rule: evenodd; stroke: rgb(100, 50, 25); stroke-linecap: round; stroke-linejoin: round; stroke-width: 50px;"/>
    <path class="cls-2" d="M 6181.794 -574.736 C 5963.874 -584.916 5768.244 -240.996 5819.534 20.714 C 5860.314 230.284 6031.454 359.854 6216.634 349.104 C 6534.094 331.104 6581.724 -38.756 6563.874 -108.896 C 6549.014 -167.206 6237.934 -127.166 6238.014 -126.696 C 6238.014 -126.696 6197.834 70.364 6199.654 44.904 C 6208.104 -75.956 6207.584 -181.596 6193.504 -287.026 C 6188.234 -326.636 6215.924 -154.326 6243.504 -148.836 C 6271.154 -143.706 6532.334 -136.226 6553.134 -169.836 C 6571.334 -199.086 6456.464 -561.746 6181.794 -574.736 Z" style="fill: rgb(255, 243, 228); fill-rule: evenodd; stroke: rgb(100, 50, 25); stroke-linecap: round; stroke-linejoin: round; stroke-width: 50px;"/>
    <path class="cls-3" d="M 6199.672 -549.672 C 6308.782 -554.742 6433.872 -646.272 6470.672 -766.342 C 6552.152 -1031.342 6286.332 -1126.342 6286.072 -1126.042 C 6286.072 -1126.112 6407.612 -1078.042 6431.432 -1085.242 C 6459.152 -1093.802 6572.432 -1170.242 6565.352 -1209.242 C 6545.042 -1321.502 6437.282 -1471.102 6222.622 -1459.792 C 6027.862 -1449.402 5890.462 -1343.192 5886.162 -1152.932 C 5881.542 -948.232 6035.072 -877.302 6082.342 -851.712 C 6133.012 -824.532 6211.652 -799.172 6211.642 -799.152 C 6211.632 -799.132 6041.972 -858.292 6021.972 -847.322 C 5998.722 -834.762 5917.972 -767.842 5922.452 -740.042 C 5934.382 -666.182 6074.222 -544.002 6199.672 -549.672 Z" style="fill: rgb(255, 243, 228); fill-rule: evenodd; stroke: rgb(100, 50, 25); stroke-linejoin: round; stroke-width: 50px;"/>
    <path class="cls-2" d="M 6651.801 -1582.627 C 6683.991 -1616.917 6685.331 -1804.627 6676.461 -1953.337 C 6667.591 -2102.047 6600.281 -2364.497 6571.871 -2379.887 C 6543.611 -2395.467 6371.541 -2418.987 6348.051 -2386.787 C 6332.651 -2365.787 6324.631 -2043.067 6324.661 -2043.067 C 6324.691 -2043.067 6312.411 -2363.067 6297.791 -2384.387 C 6275.441 -2417.207 6102.471 -2368.967 6080.611 -2356.517 C 6058.611 -2344.247 6003.471 -2164.397 5987.441 -1997.717 C 5971.411 -1831.037 5958.351 -1587.287 5987.041 -1555.847 C 6015.791 -1524.797 6285.691 -1513.777 6306.041 -1556.627 C 6318.331 -1582.777 6332.611 -1773.077 6332.631 -1773.077 C 6332.651 -1773.077 6338.241 -1583.077 6350.131 -1553.237 C 6361.641 -1524.737 6619.561 -1548.687 6651.801 -1582.627 Z" style="fill: rgb(255, 243, 228); fill-rule: evenodd; stroke: rgb(100, 50, 25); stroke-linecap: round; stroke-linejoin: round; stroke-width: 50px;"/>
  </g>
</svg>